<svg version="1.1" id="Layer_1" xmlns="http://www.w3.org/2000/svg" x="0" y="0" viewBox="0 0 923.1 303.9" xml:space="preserve"><path fill="#EA4335" d="M395 159.9c0 43.7-34.2 75.9-76.2 75.9s-76.2-32.2-76.2-75.9c0-44 34.2-75.9 76.2-75.9s76.2 31.9 76.2 75.9zm-33.3 0c0-27.3-19.8-46-42.8-46s-42.8 18.7-42.8 46c0 27 19.8 46 42.8 46s42.8-19 42.8-46z"/><path fill="#FBBC05" d="M559.3 159.9c0 43.7-34.2 75.9-76.2 75.9S407 203.6 407 159.9c0-44 34.2-75.9 76.2-75.9s76.1 31.9 76.1 75.9zm-33.3 0c0-27.3-19.8-46-42.8-46s-42.8 18.7-42.8 46c0 27 19.8 46 42.8 46s42.8-19 42.8-46z"/><path fill="#4285F4" d="M716.8 88.6v136.3c0 56.1-33.1 79-72.2 79-36.8 0-59-24.6-67.3-44.7l29-12.1c5.2 12.4 17.8 26.9 38.2 26.9 25 0 40.5-15.4 40.5-44.5v-10.9h-1c-7.5 9.2-21.8 17.3-40 17.3-38 0-72.7-33.1-72.7-75.6 0-43 34.7-76.3 72.7-76.3 18.1 0 32.5 8 40 17h1.2V88.6h31.6zm-29.3 71.6c0-26.7-17.8-46.3-40.5-46.3-23 0-42.3 19.5-42.3 46.3 0 26.5 19.3 45.7 42.3 45.7 22.7 0 40.5-19.3 40.5-45.7z"/><path fill="#34A853" d="M769 8.7v222.5h-32.5V8.7H769z"/><path fill="#EA4335" d="M895.8 184.9l25.9 17.3c-8.4 12.4-28.5 33.7-63.3 33.7-43.1 0-75.3-33.3-75.3-75.9 0-45.2 32.5-75.9 71.6-75.9 39.4 0 58.7 31.4 65 48.3l3.5 8.6-101.5 42c7.8 15.2 19.9 23 36.8 23 16.9-.1 28.6-8.4 37.3-21.1zm-79.7-27.3l67.9-28.2c-3.7-9.5-15-16.1-28.2-16.1-17 0-40.6 15-39.7 44.3z"/><path fill="#4285F4" d="M119.6 140.2V108h108.6c1.1 5.6 1.6 12.3 1.6 19.4 0 24.2-6.6 54.1-27.9 75.3-20.7 21.6-47.2 33.1-82.2 33.1C54.6 235.8 0 182.9 0 117.9S54.6 0 119.6 0c35.9 0 61.6 14.1 80.8 32.5l-22.7 22.7c-13.8-12.9-32.5-23-58.1-23-47.5 0-84.6 38.3-84.6 85.7s37.1 85.7 84.6 85.7c30.8 0 48.3-12.4 59.5-23.6 9.1-9.1 15.1-22.1 17.5-39.9l-77 .1z"/></svg>